<svg id="vector" overflow="visible" version="1.1" viewBox="0 0 192 192" xml:space="preserve" xmlns="http://www.w3.org/2000/svg">




<polyline transform="matrix(1.0809204,0,0,1.0809204,-7.7672778,-7.7678925)" points="77.35 74.8 73 74.8 63.8 96.016 54.6 74.8 50.25 74.8" fill="none" image-rendering="auto" stroke="#000" stroke-linecap="round" stroke-linejoin="round" stroke-width="11.10165004"/><path d="m46.587886 73.109815h-2.859035v58.583725m104.113169-48.333357c0.1081-3.45246 0.1081-6.904919 0.1081-10.357379h-34.30842c0 3.45246-0.10809 6.688735 0 9.818m17.04612-9.818v59.447376m-35.06398 24.81361h-70.776506c-6.149357 0-8.847334-2.80499-8.847334-8.95434v-104.437451c0-6.36554 2.481793-8.847334 8.847334-8.847334 17.262298-0.108092 34.524597-0.431287 51.786896-0.216184 2.481793 0 5.286782 1.510046 7.228115 3.129265 3.45246 2.696896 6.473632 6.042345 9.494805 9.278621 1.83432 1.942414 3.88375 2.589885 6.47363 2.589885 20.28347-0.216184 40.56694-0.216184 60.84934-0.216184h5.71806c6.36554 0.108092 9.49481 3.236276 9.60182 9.709908v88.793284c0 6.36554-2.91308 9.17053-9.06244 9.17053zm-16.917486-25.48486v-58.693977h-2.864439" fill="none" stroke="#000" stroke-linecap="round" stroke-width="12"/></svg>
